<?xml version="1.0" standalone="no"?><!DOCTYPE svg PUBLIC "-//W3C//DTD SVG 1.1//EN" "http://www.w3.org/Graphics/SVG/1.1/DTD/svg11.dtd"><svg t="1581155824075" class="icon" viewBox="0 0 1024 1024" version="1.1" xmlns="http://www.w3.org/2000/svg" p-id="908" xmlns:xlink="http://www.w3.org/1999/xlink" width="200" height="200"><defs><style type="text/css"></style></defs><path d="M527.746 351.626c35.544-46.544 57.612-70.966 66.2-73.268 12.88-3.452 45.516 28.192 45.66 99.576l-111.86-26.308z" fill="#FFD028" p-id="909"></path><path d="M140.124 696.528c100.814 78.584 240.376 74.806 418.69-11.334 43.682-30.016 83.432-38.036 119.248-24.058 53.724 20.966 243.196-57.726 264.78-121.602l-86.202-116.426c-39.7-75.86-59.26-130.288-58.684-163.29 0.864-49.504-29.82-41.28-42.94-17.312-13.118 23.968-32.428 82.99-95.214 112.064-62.784 29.076-84.112-50.52-135.878-21.326-51.766 29.194-143.892 207.954-357.12 298.06-27.466 7.36-36.36 29.102-26.68 65.224z" fill="#EB4F4F" p-id="910"></path><path d="M806.374 307.894c3.612 11.912 8.384 25.06 14.318 39.442-19.358 39.172-30.234 66.44-32.632 81.814-2.98 19.088 4.706 32.666 23.052 40.73l-100.288 54.72c-26.658-24.404-38.69-46.098-36.1-65.082 3.888-28.48 33.234-19.708 65.02-54.72 19.476-21.45 41.658-53.702 66.548-96.756zM376.614 576.596c26.062-4.566 58.816 5.72 98.264 30.854l-59.846 62.08c-61.688 21.886-109.056 34.58-142.108 38.076-30.102 3.186-72.032 1.254-125.788-5.798a256.04 256.04 0 0 1-7.012-5.28c-7.128-26.6-4.184-45.4 8.832-56.404 44.81-2.17 82.212-7.274 112.212-15.312 48.704-13.05 76.352-41.368 115.446-48.216z" fill="#24CD98" p-id="911"></path><path d="M853.23 416.548c1.12 2.168 2.256 4.354 3.41 6.56l86.202 116.426c-21.584 63.876-211.056 142.568-264.78 121.602-35.816-13.978-75.566-5.96-119.248 24.058-178.314 86.14-317.876 89.918-418.69 11.334l2.306 1.774-0.794-2.97c52.748-0.63 116.514-10.442 191.296-29.44 112.174-28.498 111.908-64.982 204.97-110.248 93.062-45.268 137.63-36.88 209.26-76.384 46.426-25.604 81.74-46.48 105.946-62.626z" fill="#FFD028" p-id="912"></path><path d="M904.326 487.516l38.516 52.018c-21.584 63.876-211.056 142.568-264.78 121.602a100.32 100.32 0 0 0-2.732-1.02 12.002 12.002 0 0 1 5.414-13.04l13.06-7.982a12 12 0 0 0 1.81-19.124l-3.3-2.996a9.374 9.374 0 0 1 5.166-16.244l77.142-9.408a10.986 10.986 0 0 0 5.018-19.874 8.722 8.722 0 0 1 4.96-15.84c38.27-0.344 64.764-5.928 79.488-16.752 14.51-10.67 27.924-27.782 40.238-51.34zM303.498 703.198a10.854 10.854 0 0 1 10.482 18.16 8.23 8.23 0 0 0 8.906 13.452l94.886-38.386a11.32 11.32 0 0 1 15.18 13.426 7.612 7.612 0 0 0 12.036 7.972l91.868-71.656a12 12 0 0 1 17.692 3.326l11.264 18.93a12 12 0 0 1 0.494 11.354l-0.322 0.666c-2.38 1.518-4.768 3.1-7.17 4.752-145.864 70.464-265.798 85.814-359.802 46.054 0.34-0.128 0.686-0.238 1.038-0.332l103.448-27.72z" fill="#EB4F4F" p-id="913"></path><path d="M637.206 461.802c11.372-64.288 64.002-26.7 66.8-76.462 2.798-49.76-47.808 21.052-78.372 1.574-30.566-19.478-65.984-3.532-53.78 42.194 12.202 45.726-69.268 43.556-62.956 67.212 6.314 23.654 116.936 29.772 128.308-34.518z" fill="#FFD028" p-id="914"></path><path d="M868.244 432.624l-148.418 75.91a8 8 0 0 0 3.714 15.122l130.26-1.14a8 8 0 0 0 6.004-2.796l39.884-46.564-31.444-40.532z" fill="#1C7EEA" p-id="915"></path><path d="M365.328 542.324c6.2 23.13 70.138 5.998 84.29 22.86 14.152 16.86 62.766-25.688 35.706-43.458-27.062-17.77-126.194-2.532-119.996 20.598z" fill="#FFD028" p-id="916"></path></svg>